<?xml version="1.0" encoding="UTF-8"?><svg id="Layer_1" xmlns="http://www.w3.org/2000/svg" viewBox="0 0 141.23 147.19"><defs><style>.cls-1{fill:#009fb8;}.cls-2{fill:#187ca3;}</style></defs><path class="cls-1" d="M66.96,75.13c1.85,0,3.24-1.29,3.35-3.09.14-2.45-2.09-4.76-4.59-4.76H10.55c-1.85,0-3.24,1.29-3.35,3.09-.14,2.45,2.09,4.76,4.59,4.76h55.16Z"/><path class="cls-1" d="M91.59,62.37h-56.95c-9.81,0-18.67-8.76-18.67-18.45h25.87V0c8.83,0,16.9,7.2,18.26,15.72.13.82.19,1.65.19,2.49v25.71h31.3c10.5,0,20.25,3.27,28.26,8.81,1.46,1.02,2.86,2.1,4.19,3.25.05.05.13.12.18.17.48.46.95.92,1.39,1.38.16.17.32.34.48.51.42.42.84.86,1.24,1.29,6.91,7.46,11.42,16.95,13.24,26.94.38,2.07-1.18,4-3.29,4h-11.46c-1.93,0-3.63-1.32-4.06-3.2-1.1-4.91-3.12-9.57-6.45-13.61-.73-.88-1.34-1.58-1.55-1.84-.06-.06-.09-.1-.09-.1-.14-.14-.25-.25-.32-.31l-.11-.11c-5.61-5.4-13.27-8.72-21.66-8.72Z"/><path class="cls-2" d="M32.31,88.32h34.65c1.85,0,3.25-1.29,3.35-3.1.15-2.44-2.08-4.76-4.59-4.76H31.07c-1.85,0-3.24,1.29-3.35,3.1-.14,2.45,2.08,4.76,4.59,4.76Z"/><path class="cls-2" d="M18.7,80.46H3.35c-1.85,0-3.24,1.29-3.35,3.09-.14,2.45,2.09,4.76,4.59,4.76h15.34c1.85,0,3.24-1.29,3.35-3.09.14-2.45-2.09-4.76-4.59-4.76Z"/><path class="cls-2" d="M137.9,98.2l-12.09-.06c-1.67,0-3.06,1.21-3.33,2.86-2.52,15.3-14.58,27.73-30.87,27.73s-28.69-11.57-30.97-26.63h0s6.33,0,6.33,0c.16,0,.32,0,.47-.03,1.6-.2,2.78-1.41,2.88-3.06.14-2.45-2.09-4.76-4.59-4.76H27.95c-1.85,0-3.25,1.28-3.35,3.09-.15,2.45,2.08,4.76,4.58,4.76h12.87s0,0,0,0c2.36,25.25,23.67,45.1,49.53,45.1,19.3,0,37.26-11.58,45.29-29.12,2.34-5.11,3.77-10.58,4.34-16.14.2-1.98-1.33-3.71-3.32-3.72Z"/></svg>